<?xml version="1.0" encoding="UTF-8"?>
<svg id="Layer_1" data-name="Layer 1" xmlns="http://www.w3.org/2000/svg" viewBox="0 0 11.91 11.91">
  <defs>
    <style>
      .cls-1 {
        fill: #f04a23;
      }

      .cls-2 {
        fill: #f2cc15;
      }

      .cls-3 {
        fill: #1f5e3b;
      }

      .cls-4 {
        fill: #069ed9;
      }
    </style>
  </defs>
  <path class="cls-1" d="M9.08,4.82v-.74c0-.11-.09-.21-.21-.21h-.14v-.07h-2.07v-.07h2.07v-.06h.14c.11,0,.21-.09.21-.21v-.66h-4.75l-1.95-.83v9.68h4.14c1.52,0,2.78-1.13,2.97-2.6h-.92c-.19.97-1.04,1.69-2.07,1.69h-3.23V3.24l6.24,2.7v-.93l-.44-.19Z"/>
  <polygon class="cls-1" points="4.17 10.37 5.07 10.39 5.07 8.72 8.45 8.66 8.47 8.66 8.62 8.66 8.62 8.66 9.52 8.66 9.52 7.74 5.07 7.82 5.07 7.36 9.52 7.29 9.52 6.48 4.17 6.48 4.17 10.37"/>
  <path class="cls-3" d="M4.9,2.66l.15-.22c.39-.42,1.05-.36,1.55-.18.15.06.29.14.44.2.64.25,1.42.31,1.91-.26.04-.05.17-.22.19-.28,0,0,0-.02,0-.02-.25.15-.55.22-.84.2-1-.07-1.59-1.07-2.68-.89-.11.02-.39.12-.47.19-.03.03-.12.25-.14.3-.11.31-.15.64-.11.97Z"/>
  <path class="cls-2" d="M6.57,1.14c.72.27,1.25.92,2.11.74.07-.02.39-.12.41-.19,0-.03-.1-.25-.12-.3-.14-.27-.36-.52-.61-.71-.26.3-.66.3-1.02.25-.33-.05-.64-.2-.98-.22-.37-.02-.75.08-1.01.36.4-.14.83-.09,1.23.06Z"/>
  <path class="cls-4" d="M6.48.55c.29.04.56.16.85.21.28.05.66.06.86-.18-.6-.38-1.38-.44-2.03-.15l-.24.13c.19-.02.37-.03.55-.01Z"/>
</svg>