<?xml version="1.0" encoding="UTF-8"?>
<svg id="Layer_1" data-name="Layer 1" xmlns="http://www.w3.org/2000/svg" viewBox="0 0 888.84 421.92">
  <defs>
    <style>
      .cls-1 {
        fill: #f04a23;
      }

      .cls-2 {
        fill: #f2cc15;
      }

      .cls-3 {
        fill: #1f5e3b;
      }

      .cls-4 {
        fill: #090909;
      }

      .cls-5 {
        fill: #069ed9;
      }
    </style>
  </defs>
  <g>
    <g>
      <path class="cls-4" d="M395.85,253.88c-5.71,1.94-16.52,4.62-27.33,4.62-14.94,0-25.75-3.77-33.29-11.06-7.53-7.05-11.66-17.74-11.54-29.76.12-27.21,19.92-42.76,46.77-42.76,10.57,0,18.71,2.06,22.72,4.01l-3.89,14.82c-4.49-1.94-10.08-3.52-19.07-3.52-15.43,0-27.09,8.75-27.09,26.48s10.57,26.85,25.75,26.85c4.25,0,7.65-.49,9.11-1.21v-17.13h-12.63v-14.46h30.49v43.13Z"/>
      <path class="cls-4" d="M424.63,233.83c.61,7.65,8.14,11.3,16.76,11.3,6.32,0,11.42-.85,16.4-2.43l2.43,12.51c-6.08,2.43-13.49,3.64-21.5,3.64-20.17,0-31.71-11.66-31.71-30.25,0-15.06,9.36-31.71,30.01-31.71,19.19,0,26.48,14.94,26.48,29.64,0,3.16-.36,5.95-.61,7.29h-38.26ZM446.38,221.2c0-4.49-1.94-12.03-10.44-12.03-7.77,0-10.94,7.05-11.42,12.03h21.87Z"/>
      <path class="cls-4" d="M533.24,227.27c0,21.75-15.43,31.71-31.34,31.71-17.37,0-30.74-11.42-30.74-30.61s12.63-31.46,31.71-31.46,30.37,12.51,30.37,30.37ZM490.23,227.88c0,10.2,4.25,17.86,12.15,17.86,7.17,0,11.78-7.17,11.78-17.86,0-8.87-3.4-17.86-11.78-17.86-8.87,0-12.15,9.11-12.15,17.86Z"/>
      <path class="cls-4" d="M546.72,257.64v-45.8h-7.77v-13.61h7.77v-2.31c0-7.17,2.19-15.06,7.53-19.92,4.62-4.37,11.06-5.95,16.4-5.95,4.13,0,7.29.49,9.84,1.21l-.73,14.21c-1.58-.49-3.52-.85-5.95-.85-6.07,0-8.62,4.74-8.62,10.57v3.04h11.91v13.61h-11.78v45.8h-18.59Z"/>
      <path class="cls-4" d="M586.08,217.8c0-8.75-.24-14.45-.49-19.56h15.92l.61,10.93h.49c3.04-8.63,10.33-12.27,16.04-12.27,1.7,0,2.55,0,3.89.24v17.37c-1.34-.24-2.92-.49-4.98-.49-6.8,0-11.42,3.64-12.63,9.35-.24,1.21-.37,2.67-.37,4.13v30.13h-18.46v-39.85Z"/>
      <path class="cls-4" d="M645.48,233.83c.61,7.65,8.14,11.3,16.76,11.3,6.32,0,11.42-.85,16.4-2.43l2.43,12.51c-6.08,2.43-13.49,3.64-21.5,3.64-20.17,0-31.71-11.66-31.71-30.25,0-15.06,9.36-31.71,30.01-31.71,19.19,0,26.48,14.94,26.48,29.64,0,3.16-.36,5.95-.61,7.29h-38.26ZM667.22,221.2c0-4.49-1.94-12.03-10.44-12.03-7.77,0-10.94,7.05-11.42,12.03h21.87Z"/>
      <path class="cls-4" d="M752.99,171.39v68.51c0,6.68.24,13.73.49,17.74h-16.4l-.85-8.75h-.24c-3.77,6.68-10.94,10.08-18.59,10.08-14.09,0-25.39-12.03-25.39-30.49-.12-20.04,12.39-31.58,26.61-31.58,7.29,0,13,2.55,15.67,6.68h.25v-32.19h18.46ZM734.53,223.39c0-.97-.12-2.31-.25-3.28-1.09-4.98-5.1-9.11-10.81-9.11-8.38,0-12.75,7.53-12.75,16.89,0,10.08,4.98,16.4,12.63,16.4,5.35,0,9.6-3.64,10.69-8.87.36-1.34.49-2.67.49-4.25v-7.77Z"/>
    </g>
    <g>
      <path class="cls-1" d="M472.81,284.56h-8.66v8.03h9.65v2.41h-12.52v-22.27h12.03v2.41h-9.15v7.04h8.66v2.38Z"/>
      <path class="cls-1" d="M484.18,284.99v2.15h-8.16v-2.15h8.16Z"/>
      <path class="cls-1" d="M491.08,274.41v4.59h4.16v2.21h-4.16v8.62c0,1.98.56,3.11,2.18,3.11.76,0,1.32-.1,1.69-.2l.13,2.18c-.56.23-1.45.4-2.58.4-1.36,0-2.45-.43-3.14-1.22-.83-.86-1.12-2.28-1.12-4.16v-8.72h-2.48v-2.21h2.48v-3.83l2.84-.76Z"/>
      <path class="cls-1" d="M499.94,287.53c.07,3.93,2.58,5.55,5.49,5.55,2.08,0,3.34-.36,4.43-.83l.5,2.08c-1.02.46-2.78.99-5.32.99-4.92,0-7.86-3.24-7.86-8.06s2.84-8.63,7.5-8.63c5.22,0,6.61,4.59,6.61,7.53,0,.59-.07,1.06-.1,1.35h-11.23ZM508.46,285.45c.03-1.85-.76-4.73-4.03-4.73-2.94,0-4.23,2.71-4.46,4.73h8.49Z"/>
      <path class="cls-1" d="M514.87,283.99c0-1.88-.03-3.5-.13-4.99h2.54l.1,3.14h.13c.73-2.15,2.48-3.5,4.43-3.5.33,0,.56.03.83.1v2.74c-.3-.07-.59-.1-.99-.1-2.05,0-3.5,1.55-3.9,3.73-.07.4-.13.86-.13,1.35v8.53h-2.88v-11Z"/>
      <path class="cls-1" d="M525.81,283.99c0-1.88-.03-3.5-.13-4.99h2.54l.1,3.14h.13c.73-2.15,2.48-3.5,4.43-3.5.33,0,.56.03.83.1v2.74c-.3-.07-.59-.1-.99-.1-2.05,0-3.5,1.55-3.9,3.73-.07.4-.13.86-.13,1.35v8.53h-2.88v-11Z"/>
      <path class="cls-1" d="M545.3,295l-.23-2.02h-.1c-.89,1.26-2.61,2.38-4.89,2.38-3.24,0-4.89-2.28-4.89-4.59,0-3.87,3.44-5.98,9.62-5.95v-.33c0-1.32-.36-3.7-3.63-3.7-1.49,0-3.04.46-4.16,1.19l-.66-1.92c1.32-.86,3.24-1.42,5.26-1.42,4.89,0,6.08,3.34,6.08,6.54v5.98c0,1.39.07,2.74.26,3.83h-2.64ZM544.87,286.84c-3.17-.07-6.77.5-6.77,3.6,0,1.88,1.26,2.78,2.74,2.78,2.08,0,3.4-1.32,3.87-2.68.1-.3.17-.63.17-.93v-2.78Z"/>
      <path class="cls-1" d="M551.97,292.02c.86.56,2.38,1.16,3.83,1.16,2.11,0,3.11-1.06,3.11-2.38,0-1.39-.83-2.15-2.97-2.94-2.87-1.02-4.23-2.61-4.23-4.53,0-2.58,2.08-4.69,5.52-4.69,1.62,0,3.04.46,3.93.99l-.73,2.11c-.63-.4-1.78-.93-3.27-.93-1.72,0-2.68.99-2.68,2.18,0,1.32.96,1.92,3.04,2.71,2.78,1.06,4.2,2.45,4.2,4.82,0,2.81-2.18,4.79-5.98,4.79-1.75,0-3.37-.43-4.49-1.09l.73-2.21Z"/>
      <path class="cls-1" d="M568.96,274.41v4.59h4.16v2.21h-4.16v8.62c0,1.98.56,3.11,2.18,3.11.76,0,1.32-.1,1.69-.2l.13,2.18c-.56.23-1.45.4-2.58.4-1.36,0-2.45-.43-3.14-1.22-.83-.86-1.12-2.28-1.12-4.16v-8.72h-2.48v-2.21h2.48v-3.83l2.84-.76Z"/>
      <path class="cls-1" d="M585.25,295l-.23-2.02h-.1c-.89,1.26-2.61,2.38-4.89,2.38-3.24,0-4.89-2.28-4.89-4.59,0-3.87,3.44-5.98,9.62-5.95v-.33c0-1.32-.36-3.7-3.63-3.7-1.49,0-3.04.46-4.16,1.19l-.66-1.92c1.32-.86,3.24-1.42,5.26-1.42,4.89,0,6.08,3.34,6.08,6.54v5.98c0,1.39.07,2.74.26,3.83h-2.64ZM584.82,286.84c-3.17-.07-6.77.5-6.77,3.6,0,1.88,1.26,2.78,2.74,2.78,2.08,0,3.4-1.32,3.87-2.68.1-.3.17-.63.17-.93v-2.78Z"/>
      <path class="cls-1" d="M595.69,274.41v4.59h4.16v2.21h-4.16v8.62c0,1.98.56,3.11,2.18,3.11.76,0,1.32-.1,1.69-.2l.13,2.18c-.56.23-1.45.4-2.58.4-1.36,0-2.45-.43-3.14-1.22-.83-.86-1.12-2.28-1.12-4.16v-8.72h-2.48v-2.21h2.48v-3.83l2.84-.76Z"/>
      <path class="cls-1" d="M604.54,287.53c.07,3.93,2.58,5.55,5.49,5.55,2.08,0,3.34-.36,4.43-.83l.5,2.08c-1.02.46-2.78.99-5.32.99-4.92,0-7.86-3.24-7.86-8.06s2.84-8.63,7.5-8.63c5.22,0,6.61,4.59,6.61,7.53,0,.59-.07,1.06-.1,1.35h-11.23ZM613.07,285.45c.03-1.85-.76-4.73-4.03-4.73-2.94,0-4.23,2.71-4.46,4.73h8.49Z"/>
    </g>
  </g>
  <g>
    <path class="cls-1" d="M293.92,200.66v-13.5c0-2.07-1.69-3.76-3.76-3.76h-2.61v-1.2h-37.54v-1.2h37.54v-1.05h2.61c2.07,0,3.76-1.69,3.76-3.76v-12h-86.18l-35.39-14.97v175.55h75.04c27.57,0,50.38-20.49,53.97-47.1h-16.61c-3.5,17.52-18.96,30.72-37.49,30.72h-58.52v-136.35l113.13,48.97v-16.95l-7.95-3.38Z"/>
    <polygon class="cls-1" points="204.82 301.4 221.18 301.64 221.18 271.4 282.36 270.31 282.72 270.31 285.55 270.26 285.55 270.31 301.9 270.31 301.9 253.7 221.18 255.05 221.18 246.73 301.9 245.48 301.9 230.77 204.82 230.79 204.82 301.4"/>
    <path class="cls-3" d="M217.94,161.38l2.64-4.02c7.15-7.59,19.14-6.61,28.15-3.21,2.74,1.03,5.3,2.53,8.04,3.58,11.67,4.46,25.82,5.7,34.7-4.71.77-.91,3.08-4.07,3.38-5.07.04-.14.04-.36-.1-.31-4.54,2.72-9.91,3.94-15.21,3.59-18.08-1.21-28.8-19.37-48.55-16.21-1.94.31-7.16,2.1-8.55,3.39-.6.55-2.14,4.45-2.48,5.44-1.93,5.56-2.64,11.67-2.01,17.53Z"/>
    <path class="cls-2" d="M248.42,133.96c13.08,4.89,22.66,16.69,38.2,13.37,1.28-.27,7.06-2.24,7.36-3.43.15-.59-1.77-4.57-2.19-5.35-2.62-4.99-6.5-9.47-10.99-12.83-4.75,5.39-11.9,5.52-18.53,4.54-6.01-.89-11.69-3.58-17.8-3.97-6.76-.42-13.68,1.45-18.29,6.56,7.32-2.58,15.11-1.55,22.24,1.11Z"/>
    <path class="cls-5" d="M246.75,123.16c5.31.65,10.25,2.88,15.51,3.72,5.17.83,12.05,1.16,15.69-3.22-10.88-6.96-25.09-7.92-36.91-2.68l-4.29,2.36c3.37-.45,6.62-.6,10.01-.18Z"/>
  </g>
</svg>