<?xml version="1.0" encoding="UTF-8"?>
<svg id="Layer_1" data-name="Layer 1" xmlns="http://www.w3.org/2000/svg" viewBox="0 0 888.84 421.92">
  <defs>
    <style>
      .cls-1 {
        fill: #f04a23;
      }

      .cls-2 {
        fill: #f4f4f5;
      }

      .cls-3 {
        fill: #f2cc15;
      }

      .cls-4 {
        fill: #1f5e3b;
      }

      .cls-5 {
        fill: #069ed9;
      }
    </style>
  </defs>
  <g>
    <g>
      <path class="cls-2" d="M360.73,244.07c-5.95,2.02-17.21,4.81-28.48,4.81-15.57,0-26.83-3.92-34.68-11.52-7.85-7.34-12.15-18.48-12.02-31.01.13-28.35,20.76-44.55,48.73-44.55,11.01,0,19.49,2.15,23.67,4.18l-4.05,15.44c-4.68-2.02-10.5-3.67-19.87-3.67-16.07,0-28.22,9.11-28.22,27.59s11.01,27.97,26.83,27.97c4.43,0,7.97-.51,9.49-1.27v-17.84h-13.16v-15.06h31.77v44.93Z"/>
      <path class="cls-2" d="M390.72,223.19c.63,7.97,8.48,11.77,17.47,11.77,6.58,0,11.9-.89,17.09-2.53l2.53,13.03c-6.33,2.53-14.05,3.8-22.4,3.8-21.01,0-33.03-12.15-33.03-31.51,0-15.69,9.75-33.03,31.26-33.03,20,0,27.59,15.57,27.59,30.88,0,3.29-.38,6.2-.63,7.59h-39.87ZM413.37,210.03c0-4.68-2.02-12.53-10.88-12.53-8.1,0-11.39,7.34-11.9,12.53h22.78Z"/>
      <path class="cls-2" d="M503.86,216.35c0,22.66-16.07,33.03-32.65,33.03-18.1,0-32.02-11.9-32.02-31.89s13.16-32.78,33.03-32.78,31.64,13.04,31.64,31.64ZM459.06,216.99c0,10.63,4.43,18.6,12.66,18.6,7.47,0,12.28-7.47,12.28-18.6,0-9.24-3.54-18.61-12.28-18.61-9.24,0-12.66,9.49-12.66,18.61Z"/>
      <path class="cls-2" d="M517.91,247.99v-47.71h-8.1v-14.17h8.1v-2.41c0-7.47,2.28-15.69,7.85-20.76,4.81-4.56,11.52-6.2,17.09-6.2,4.3,0,7.59.51,10.25,1.27l-.76,14.81c-1.65-.51-3.67-.88-6.2-.88-6.33,0-8.98,4.93-8.98,11.01v3.17h12.4v14.17h-12.28v47.71h-19.36Z"/>
      <path class="cls-2" d="M558.91,206.48c0-9.11-.25-15.06-.51-20.38h16.58l.63,11.39h.51c3.17-8.99,10.76-12.78,16.71-12.78,1.77,0,2.66,0,4.05.25v18.1c-1.39-.25-3.04-.51-5.19-.51-7.09,0-11.9,3.8-13.16,9.74-.25,1.27-.38,2.78-.38,4.3v31.39h-19.24v-41.51Z"/>
      <path class="cls-2" d="M620.8,223.19c.63,7.97,8.48,11.77,17.47,11.77,6.58,0,11.9-.89,17.09-2.53l2.53,13.03c-6.33,2.53-14.05,3.8-22.4,3.8-21.01,0-33.03-12.15-33.03-31.51,0-15.69,9.75-33.03,31.26-33.03,20,0,27.59,15.57,27.59,30.88,0,3.29-.38,6.2-.63,7.59h-39.87ZM643.46,210.03c0-4.68-2.02-12.53-10.88-12.53-8.1,0-11.39,7.34-11.9,12.53h22.78Z"/>
      <path class="cls-2" d="M732.81,158.14v71.38c0,6.96.25,14.3.51,18.48h-17.09l-.89-9.11h-.25c-3.92,6.96-11.39,10.51-19.36,10.51-14.68,0-26.45-12.53-26.45-31.77-.13-20.88,12.91-32.91,27.72-32.91,7.59,0,13.54,2.66,16.33,6.96h.26v-33.54h19.24ZM713.57,212.3c0-1.01-.13-2.4-.26-3.42-1.14-5.19-5.31-9.49-11.26-9.49-8.73,0-13.29,7.85-13.29,17.59,0,10.5,5.19,17.08,13.16,17.08,5.57,0,10-3.8,11.14-9.24.38-1.39.51-2.78.51-4.43v-8.1Z"/>
    </g>
    <g>
      <path class="cls-1" d="M440.92,276.03h-9.02v8.37h10.05v2.51h-13.05v-23.2h12.53v2.51h-9.54v7.33h9.02v2.48Z"/>
      <path class="cls-1" d="M452.76,276.48v2.24h-8.5v-2.24h8.5Z"/>
      <path class="cls-1" d="M459.95,265.46v4.79h4.34v2.31h-4.34v8.99c0,2.07.58,3.24,2.27,3.24.79,0,1.38-.1,1.76-.21l.14,2.27c-.59.24-1.52.41-2.69.41-1.41,0-2.55-.45-3.27-1.27-.86-.89-1.17-2.38-1.17-4.34v-9.09h-2.58v-2.31h2.58v-3.99l2.96-.79Z"/>
      <path class="cls-1" d="M469.18,279.13c.07,4.1,2.69,5.78,5.71,5.78,2.17,0,3.48-.38,4.61-.86l.52,2.17c-1.07.48-2.89,1.03-5.54,1.03-5.13,0-8.19-3.37-8.19-8.4s2.96-8.99,7.81-8.99c5.44,0,6.89,4.79,6.89,7.85,0,.62-.07,1.1-.1,1.41h-11.7ZM478.06,276.96c.03-1.93-.79-4.92-4.2-4.92-3.06,0-4.41,2.82-4.65,4.92h8.85Z"/>
      <path class="cls-1" d="M484.73,275.45c0-1.96-.03-3.65-.14-5.2h2.65l.1,3.27h.14c.76-2.24,2.58-3.65,4.61-3.65.34,0,.59.03.86.1v2.86c-.31-.07-.62-.1-1.03-.1-2.14,0-3.65,1.62-4.06,3.89-.07.41-.14.9-.14,1.41v8.88h-3v-11.46Z"/>
      <path class="cls-1" d="M496.13,275.45c0-1.96-.03-3.65-.14-5.2h2.65l.1,3.27h.14c.76-2.24,2.58-3.65,4.61-3.65.34,0,.58.03.86.1v2.86c-.31-.07-.62-.1-1.03-.1-2.14,0-3.65,1.62-4.06,3.89-.07.41-.14.9-.14,1.41v8.88h-3v-11.46Z"/>
      <path class="cls-1" d="M516.44,286.91l-.24-2.1h-.1c-.93,1.31-2.72,2.48-5.09,2.48-3.37,0-5.1-2.38-5.1-4.79,0-4.03,3.58-6.23,10.02-6.2v-.34c0-1.38-.38-3.86-3.79-3.86-1.55,0-3.17.48-4.34,1.24l-.69-2c1.38-.89,3.37-1.48,5.47-1.48,5.09,0,6.33,3.48,6.33,6.82v6.23c0,1.45.07,2.86.28,3.99h-2.75ZM515.99,278.41c-3.3-.07-7.06.52-7.06,3.75,0,1.96,1.31,2.89,2.86,2.89,2.17,0,3.55-1.38,4.03-2.79.1-.31.17-.65.17-.96v-2.89Z"/>
      <path class="cls-1" d="M523.39,283.81c.9.58,2.48,1.2,3.99,1.2,2.2,0,3.24-1.1,3.24-2.48,0-1.45-.86-2.24-3.1-3.06-2.99-1.07-4.41-2.72-4.41-4.72,0-2.69,2.17-4.89,5.75-4.89,1.69,0,3.17.48,4.1,1.03l-.76,2.2c-.65-.41-1.86-.96-3.41-.96-1.79,0-2.79,1.03-2.79,2.27,0,1.38,1,2,3.17,2.82,2.89,1.1,4.37,2.55,4.37,5.03,0,2.93-2.27,4.99-6.23,4.99-1.82,0-3.51-.45-4.68-1.14l.76-2.31Z"/>
      <path class="cls-1" d="M541.08,265.46v4.79h4.34v2.31h-4.34v8.99c0,2.07.58,3.24,2.27,3.24.79,0,1.38-.1,1.76-.21l.14,2.27c-.59.24-1.52.41-2.69.41-1.41,0-2.55-.45-3.27-1.27-.86-.89-1.17-2.38-1.17-4.34v-9.09h-2.58v-2.31h2.58v-3.99l2.96-.79Z"/>
      <path class="cls-1" d="M558.05,286.91l-.24-2.1h-.1c-.93,1.31-2.72,2.48-5.09,2.48-3.37,0-5.1-2.38-5.1-4.79,0-4.03,3.58-6.23,10.02-6.2v-.34c0-1.38-.38-3.86-3.79-3.86-1.55,0-3.17.48-4.34,1.24l-.69-2c1.38-.89,3.37-1.48,5.47-1.48,5.09,0,6.33,3.48,6.33,6.82v6.23c0,1.45.07,2.86.28,3.99h-2.75ZM557.6,278.41c-3.3-.07-7.06.52-7.06,3.75,0,1.96,1.31,2.89,2.86,2.89,2.17,0,3.55-1.38,4.03-2.79.1-.31.17-.65.17-.96v-2.89Z"/>
      <path class="cls-1" d="M568.93,265.46v4.79h4.34v2.31h-4.34v8.99c0,2.07.58,3.24,2.27,3.24.79,0,1.38-.1,1.76-.21l.14,2.27c-.59.24-1.52.41-2.69.41-1.41,0-2.55-.45-3.27-1.27-.86-.89-1.17-2.38-1.17-4.34v-9.09h-2.58v-2.31h2.58v-3.99l2.96-.79Z"/>
      <path class="cls-1" d="M578.15,279.13c.07,4.1,2.69,5.78,5.71,5.78,2.17,0,3.48-.38,4.61-.86l.52,2.17c-1.07.48-2.89,1.03-5.54,1.03-5.13,0-8.19-3.37-8.19-8.4s2.96-8.99,7.81-8.99c5.44,0,6.89,4.79,6.89,7.85,0,.62-.07,1.1-.1,1.41h-11.7ZM587.03,276.96c.03-1.93-.79-4.92-4.2-4.92-3.06,0-4.41,2.82-4.65,4.92h8.85Z"/>
    </g>
  </g>
  <g>
    <path class="cls-1" d="M237.72,188.63v-14.07c0-2.16-1.76-3.92-3.92-3.92h-2.72v-1.26h-39.11v-1.25h39.11v-1.1h2.72c2.16,0,3.92-1.76,3.92-3.92v-12.5h-89.78l-36.87-15.6v182.9h78.17c28.73,0,52.48-21.35,56.23-49.07h-17.31c-3.64,18.25-19.75,32-39.06,32h-60.97v-142.06l117.86,51.02v-17.66l-8.28-3.52Z"/>
    <polygon class="cls-1" points="144.89 293.58 161.94 293.83 161.94 262.32 225.68 261.19 226.05 261.19 229 261.14 229 261.19 246.04 261.19 246.04 243.88 161.94 245.29 161.94 236.63 246.04 235.32 246.04 220 144.89 220.01 144.89 293.58"/>
    <path class="cls-4" d="M158.56,147.7l2.75-4.18c7.45-7.9,19.94-6.88,29.32-3.34,2.85,1.08,5.52,2.64,8.38,3.73,12.16,4.65,26.9,5.93,36.15-4.91.81-.95,3.2-4.24,3.53-5.28.04-.14.04-.37-.11-.32-4.73,2.83-10.33,4.11-15.85,3.74-18.84-1.26-30-20.18-50.58-16.89-2.02.32-7.46,2.19-8.91,3.53-.62.58-2.23,4.63-2.59,5.67-2.02,5.79-2.75,12.16-2.1,18.26Z"/>
    <path class="cls-3" d="M190.32,119.14c13.62,5.1,23.61,17.39,39.8,13.93,1.33-.28,7.35-2.33,7.67-3.57.16-.61-1.85-4.76-2.28-5.58-2.73-5.2-6.77-9.86-11.45-13.37-4.95,5.61-12.4,5.75-19.31,4.73-6.27-.93-12.18-3.73-18.54-4.13-7.04-.44-14.25,1.52-19.05,6.83,7.63-2.69,15.75-1.62,23.17,1.16Z"/>
    <path class="cls-5" d="M188.58,107.89c5.53.68,10.68,3,16.15,3.88,5.38.87,12.56,1.21,16.35-3.35-11.34-7.25-26.14-8.25-38.46-2.79l-4.47,2.46c3.51-.47,6.9-.62,10.43-.19Z"/>
  </g>
</svg>