<?xml version="1.0" encoding="UTF-8"?>
<svg id="Layer_1" data-name="Layer 1" xmlns="http://www.w3.org/2000/svg" viewBox="0 0 888.84 421.92">
  <defs>
    <style>
      .cls-1 {
        fill: #f4f4f5;
      }
    </style>
  </defs>
  <g>
    <g>
      <path class="cls-1" d="M379.73,243.38c-6.02,2.05-17.43,4.87-28.83,4.87-15.76,0-27.16-3.97-35.11-11.66-7.94-7.43-12.3-18.71-12.17-31.39.13-28.7,21.01-45.1,49.33-45.1,11.15,0,19.73,2.18,23.96,4.23l-4.1,15.63c-4.74-2.05-10.63-3.71-20.12-3.71-16.27,0-28.58,9.23-28.58,27.93s11.15,28.32,27.16,28.32c4.49,0,8.07-.51,9.61-1.28v-18.07h-13.33v-15.25h32.16v45.49Z"/>
      <path class="cls-1" d="M410.09,222.24c.64,8.07,8.58,11.92,17.68,11.92,6.66,0,12.04-.9,17.3-2.56l2.56,13.2c-6.41,2.56-14.22,3.84-22.68,3.84-21.27,0-33.44-12.3-33.44-31.9,0-15.89,9.87-33.44,31.65-33.44,20.25,0,27.93,15.76,27.93,31.26,0,3.33-.38,6.28-.64,7.69h-40.36ZM433.02,208.92c0-4.74-2.05-12.68-11.02-12.68-8.2,0-11.53,7.43-12.05,12.68h23.06Z"/>
      <path class="cls-1" d="M524.64,215.32c0,22.94-16.27,33.44-33.06,33.44-18.32,0-32.42-12.04-32.42-32.29s13.33-33.19,33.44-33.19,32.03,13.2,32.03,32.03ZM479.28,215.96c0,10.76,4.48,18.83,12.81,18.83,7.56,0,12.43-7.56,12.43-18.83,0-9.36-3.59-18.84-12.43-18.84-9.36,0-12.81,9.61-12.81,18.84Z"/>
      <path class="cls-1" d="M538.87,247.36v-48.31h-8.2v-14.35h8.2v-2.44c0-7.56,2.31-15.89,7.94-21.01,4.87-4.61,11.66-6.28,17.3-6.28,4.35,0,7.69.51,10.38,1.28l-.77,14.99c-1.67-.51-3.72-.9-6.28-.9-6.4,0-9.1,5-9.1,11.15v3.2h12.56v14.35h-12.43v48.31h-19.61Z"/>
      <path class="cls-1" d="M580.38,205.33c0-9.23-.25-15.25-.51-20.63h16.79l.64,11.53h.51c3.2-9.1,10.89-12.94,16.91-12.94,1.8,0,2.69,0,4.1.26v18.32c-1.41-.26-3.08-.51-5.25-.51-7.18,0-12.04,3.84-13.33,9.87-.26,1.28-.39,2.82-.39,4.36v31.78h-19.48v-42.03Z"/>
      <path class="cls-1" d="M643.03,222.24c.64,8.07,8.58,11.92,17.68,11.92,6.66,0,12.04-.9,17.3-2.56l2.56,13.2c-6.41,2.56-14.22,3.84-22.68,3.84-21.27,0-33.44-12.3-33.44-31.9,0-15.89,9.87-33.44,31.65-33.44,20.25,0,27.93,15.76,27.93,31.26,0,3.33-.38,6.28-.64,7.69h-40.36ZM665.97,208.92c0-4.74-2.05-12.68-11.02-12.68-8.2,0-11.53,7.43-12.05,12.68h23.06Z"/>
      <path class="cls-1" d="M756.43,156.38v72.27c0,7.05.25,14.48.51,18.71h-17.3l-.9-9.23h-.25c-3.97,7.05-11.53,10.64-19.61,10.64-14.86,0-26.78-12.69-26.78-32.16-.13-21.14,13.07-33.31,28.06-33.31,7.69,0,13.71,2.69,16.53,7.05h.26v-33.96h19.48ZM736.96,211.22c0-1.03-.13-2.43-.26-3.46-1.15-5.25-5.38-9.61-11.4-9.61-8.84,0-13.45,7.94-13.45,17.81,0,10.63,5.25,17.3,13.33,17.3,5.64,0,10.12-3.84,11.28-9.35.38-1.41.51-2.82.51-4.49v-8.2Z"/>
    </g>
    <g>
      <path class="cls-1" d="M460.91,275.74h-9.13v8.47h10.18v2.54h-13.21v-23.49h12.69v2.54h-9.65v7.42h9.13v2.51Z"/>
      <path class="cls-1" d="M472.9,276.19v2.27h-8.61v-2.27h8.61Z"/>
      <path class="cls-1" d="M480.18,265.04v4.84h4.39v2.34h-4.39v9.1c0,2.09.59,3.28,2.3,3.28.8,0,1.39-.1,1.78-.21l.14,2.3c-.59.24-1.53.42-2.72.42-1.43,0-2.58-.45-3.31-1.29-.87-.91-1.18-2.4-1.18-4.39v-9.2h-2.61v-2.34h2.61v-4.04l3-.8Z"/>
      <path class="cls-1" d="M489.52,278.88c.07,4.15,2.72,5.86,5.79,5.86,2.2,0,3.52-.38,4.67-.87l.52,2.2c-1.08.49-2.93,1.05-5.61,1.05-5.19,0-8.3-3.42-8.3-8.5s3-9.1,7.91-9.1c5.51,0,6.97,4.84,6.97,7.95,0,.63-.07,1.12-.1,1.43h-11.85ZM498.51,276.68c.04-1.95-.8-4.98-4.25-4.98-3.1,0-4.46,2.86-4.71,4.98h8.96Z"/>
      <path class="cls-1" d="M505.27,275.15c0-1.99-.03-3.69-.14-5.26h2.68l.1,3.31h.14c.77-2.27,2.61-3.7,4.67-3.7.35,0,.59.04.87.11v2.89c-.31-.07-.63-.1-1.04-.1-2.16,0-3.69,1.64-4.11,3.94-.07.42-.14.91-.14,1.43v8.99h-3.03v-11.61Z"/>
      <path class="cls-1" d="M516.81,275.15c0-1.99-.03-3.69-.14-5.26h2.68l.1,3.31h.14c.77-2.27,2.61-3.7,4.67-3.7.35,0,.59.04.87.11v2.89c-.31-.07-.63-.1-1.04-.1-2.16,0-3.7,1.64-4.11,3.94-.07.42-.14.91-.14,1.43v8.99h-3.03v-11.61Z"/>
      <path class="cls-1" d="M537.37,286.76l-.24-2.13h-.1c-.94,1.32-2.75,2.51-5.16,2.51-3.42,0-5.16-2.4-5.16-4.84,0-4.08,3.63-6.31,10.14-6.27v-.35c0-1.39-.38-3.9-3.83-3.9-1.57,0-3.21.49-4.39,1.25l-.7-2.02c1.39-.91,3.42-1.5,5.54-1.5,5.16,0,6.41,3.52,6.41,6.9v6.31c0,1.46.07,2.89.28,4.04h-2.79ZM536.92,278.15c-3.35-.07-7.15.52-7.15,3.8,0,1.99,1.33,2.93,2.89,2.93,2.2,0,3.59-1.39,4.08-2.82.1-.31.17-.66.17-.98v-2.93Z"/>
      <path class="cls-1" d="M544.41,283.62c.91.59,2.51,1.22,4.04,1.22,2.23,0,3.28-1.12,3.28-2.51,0-1.46-.87-2.27-3.14-3.1-3.03-1.08-4.46-2.75-4.46-4.78,0-2.72,2.2-4.95,5.82-4.95,1.71,0,3.21.49,4.15,1.05l-.77,2.23c-.66-.42-1.88-.98-3.45-.98-1.81,0-2.82,1.05-2.82,2.3,0,1.39,1.01,2.02,3.21,2.86,2.93,1.12,4.43,2.58,4.43,5.09,0,2.96-2.3,5.05-6.31,5.05-1.85,0-3.56-.45-4.74-1.15l.77-2.34Z"/>
      <path class="cls-1" d="M562.32,265.04v4.84h4.39v2.34h-4.39v9.1c0,2.09.59,3.28,2.3,3.28.8,0,1.39-.1,1.78-.21l.14,2.3c-.59.24-1.53.42-2.72.42-1.43,0-2.58-.45-3.31-1.29-.87-.91-1.18-2.4-1.18-4.39v-9.2h-2.61v-2.34h2.61v-4.04l3-.8Z"/>
      <path class="cls-1" d="M579.5,286.76l-.24-2.13h-.1c-.94,1.32-2.75,2.51-5.16,2.51-3.42,0-5.16-2.4-5.16-4.84,0-4.08,3.63-6.31,10.14-6.27v-.35c0-1.39-.38-3.9-3.83-3.9-1.57,0-3.21.49-4.39,1.25l-.7-2.02c1.39-.91,3.42-1.5,5.54-1.5,5.16,0,6.41,3.52,6.41,6.9v6.31c0,1.46.07,2.89.28,4.04h-2.79ZM579.05,278.15c-3.35-.07-7.15.52-7.15,3.8,0,1.99,1.33,2.93,2.89,2.93,2.2,0,3.59-1.39,4.08-2.82.1-.31.17-.66.17-.98v-2.93Z"/>
      <path class="cls-1" d="M590.51,265.04v4.84h4.39v2.34h-4.39v9.1c0,2.09.59,3.28,2.3,3.28.8,0,1.39-.1,1.78-.21l.14,2.3c-.59.24-1.53.42-2.72.42-1.43,0-2.58-.45-3.31-1.29-.87-.91-1.18-2.4-1.18-4.39v-9.2h-2.61v-2.34h2.61v-4.04l3-.8Z"/>
      <path class="cls-1" d="M599.85,278.88c.07,4.15,2.72,5.86,5.79,5.86,2.2,0,3.52-.38,4.67-.87l.52,2.2c-1.08.49-2.93,1.05-5.61,1.05-5.19,0-8.3-3.42-8.3-8.5s3-9.1,7.91-9.1c5.51,0,6.97,4.84,6.97,7.95,0,.63-.07,1.12-.1,1.43h-11.85ZM608.85,276.68c.04-1.95-.8-4.98-4.25-4.98-3.1,0-4.46,2.86-4.71,4.98h8.96Z"/>
    </g>
  </g>
  <g>
    <path class="cls-1" d="M260.14,189.29v-14.24c0-2.19-1.78-3.97-3.97-3.97h-2.75v-1.27h-39.61v-1.27h39.61v-1.11h2.75c2.19,0,3.97-1.78,3.97-3.97v-12.66h-90.92l-37.33-15.8v185.21h79.17c29.09,0,53.15-21.62,56.94-49.69h-17.53c-3.69,18.48-20,32.41-39.56,32.41h-61.74v-143.86l119.36,51.66v-17.88l-8.38-3.57Z"/>
    <polygon class="cls-1" points="166.14 295.57 183.4 295.82 183.4 263.92 247.95 262.77 248.32 262.77 251.31 262.72 251.31 262.77 268.56 262.77 268.56 245.24 183.4 246.67 183.4 237.9 268.56 236.58 268.56 221.06 166.14 221.07 166.14 295.57"/>
    <g>
      <path class="cls-1" d="M179.98,147.85l2.78-4.24c7.54-8,20.19-6.97,29.69-3.38,2.89,1.09,5.59,2.67,8.48,3.78,12.31,4.71,27.24,6.01,36.61-4.97.82-.96,3.24-4.29,3.57-5.35.05-.15.05-.38-.11-.33-4.79,2.87-10.46,4.16-16.05,3.79-19.08-1.27-30.38-20.44-51.22-17.11-2.04.33-7.55,2.22-9.02,3.58-.63.58-2.26,4.69-2.62,5.74-2.04,5.87-2.79,12.31-2.13,18.49Z"/>
      <path class="cls-1" d="M212.13,118.92c13.8,5.16,23.91,17.61,40.3,14.11,1.35-.29,7.45-2.36,7.76-3.62.16-.62-1.87-4.82-2.31-5.65-2.76-5.26-6.86-9.99-11.6-13.54-5.01,5.68-12.55,5.83-19.55,4.79-6.35-.94-12.34-3.78-18.78-4.18-7.13-.45-14.43,1.53-19.29,6.92,7.73-2.73,15.95-1.64,23.46,1.17Z"/>
      <path class="cls-1" d="M210.38,107.53c5.6.69,10.81,3.03,16.36,3.93,5.45.88,12.71,1.22,16.55-3.4-11.48-7.34-26.48-8.36-38.94-2.83l-4.53,2.49c3.55-.47,6.99-.63,10.56-.19Z"/>
    </g>
  </g>
</svg>